<mxfile host="app.diagrams.net" modified="2023-09-22T19:56:34.775Z" agent="Mozilla/5.0 (Windows NT 10.0; Win64; x64) AppleWebKit/537.36 (KHTML, like Gecko) Chrome/116.0.0.0 Safari/537.36 OPR/102.0.0.0" etag="Bhg_wfILH5stgOceZXXV" version="21.7.5" type="google">
  <diagram name="Page-1" id="RW_we8QcrTJhDJlgPW4V">
    <mxGraphModel grid="1" page="1" gridSize="10" guides="1" tooltips="1" connect="1" arrows="1" fold="1" pageScale="1" pageWidth="850" pageHeight="1100" math="0" shadow="0">
      <root>
        <mxCell id="0" />
        <mxCell id="1" parent="0" />
        <mxCell id="2NU-YmTTYoI5YHuvntIQ-2" value="" style="rounded=0;whiteSpace=wrap;html=1;" vertex="1" parent="1">
          <mxGeometry x="95" y="55" width="585" height="910" as="geometry" />
        </mxCell>
        <mxCell id="2NU-YmTTYoI5YHuvntIQ-4" value="Game Admin&lt;br&gt;" style="shape=umlActor;verticalLabelPosition=bottom;verticalAlign=top;html=1;outlineConnect=0;" vertex="1" parent="1">
          <mxGeometry x="760" y="295" width="30" height="60" as="geometry" />
        </mxCell>
        <mxCell id="2NU-YmTTYoI5YHuvntIQ-5" value="Enemy" style="shape=umlActor;verticalLabelPosition=bottom;verticalAlign=top;html=1;outlineConnect=0;" vertex="1" parent="1">
          <mxGeometry x="760" y="600" width="30" height="60" as="geometry" />
        </mxCell>
        <mxCell id="2NU-YmTTYoI5YHuvntIQ-6" value="Third-Party Database Service&lt;br&gt;" style="shape=umlActor;verticalLabelPosition=bottom;verticalAlign=top;html=1;outlineConnect=0;" vertex="1" parent="1">
          <mxGeometry x="760" y="775" width="30" height="60" as="geometry" />
        </mxCell>
        <mxCell id="2NU-YmTTYoI5YHuvntIQ-7" value="International Game Developer Association&lt;br&gt;" style="shape=umlActor;verticalLabelPosition=bottom;verticalAlign=top;html=1;outlineConnect=0;" vertex="1" parent="1">
          <mxGeometry x="160" y="985" width="30" height="60" as="geometry" />
        </mxCell>
        <mxCell id="2NU-YmTTYoI5YHuvntIQ-8" value="Contractor Company&lt;br&gt;" style="shape=umlActor;verticalLabelPosition=bottom;verticalAlign=top;html=1;outlineConnect=0;" vertex="1" parent="1">
          <mxGeometry x="510" y="985" width="30" height="60" as="geometry" />
        </mxCell>
        <mxCell id="2NU-YmTTYoI5YHuvntIQ-9" value="Shareholder&lt;br&gt;" style="shape=umlActor;verticalLabelPosition=bottom;verticalAlign=top;html=1;outlineConnect=0;" vertex="1" parent="1">
          <mxGeometry x="380" y="985" width="30" height="61" as="geometry" />
        </mxCell>
        <mxCell id="2NU-YmTTYoI5YHuvntIQ-10" value="Player&lt;br&gt;" style="shape=umlActor;verticalLabelPosition=bottom;verticalAlign=top;html=1;outlineConnect=0;" vertex="1" parent="1">
          <mxGeometry x="10" y="315" width="30" height="60" as="geometry" />
        </mxCell>
        <mxCell id="2NU-YmTTYoI5YHuvntIQ-11" value="Battle" style="ellipse;whiteSpace=wrap;html=1;" vertex="1" parent="1">
          <mxGeometry x="110" y="670" width="140" height="70" as="geometry" />
        </mxCell>
        <mxCell id="2NU-YmTTYoI5YHuvntIQ-12" value="Pickup Item&lt;br&gt;" style="ellipse;whiteSpace=wrap;html=1;" vertex="1" parent="1">
          <mxGeometry x="110" y="510" width="140" height="70" as="geometry" />
        </mxCell>
        <mxCell id="2NU-YmTTYoI5YHuvntIQ-13" value="Move&lt;br&gt;" style="ellipse;whiteSpace=wrap;html=1;" vertex="1" parent="1">
          <mxGeometry x="110" y="285" width="140" height="70" as="geometry" />
        </mxCell>
        <mxCell id="2NU-YmTTYoI5YHuvntIQ-14" value="Start Game&lt;br&gt;" style="ellipse;whiteSpace=wrap;html=1;" vertex="1" parent="1">
          <mxGeometry x="110" y="80" width="140" height="70" as="geometry" />
        </mxCell>
        <mxCell id="2NU-YmTTYoI5YHuvntIQ-15" value="Exit Game&lt;br&gt;" style="ellipse;whiteSpace=wrap;html=1;" vertex="1" parent="1">
          <mxGeometry x="110" y="870" width="140" height="70" as="geometry" />
        </mxCell>
        <mxCell id="2NU-YmTTYoI5YHuvntIQ-16" value="Enter New Room&lt;br&gt;" style="ellipse;whiteSpace=wrap;html=1;" vertex="1" parent="1">
          <mxGeometry x="325" y="285" width="140" height="70" as="geometry" />
        </mxCell>
        <mxCell id="2NU-YmTTYoI5YHuvntIQ-17" value="Win Game&lt;br&gt;" style="ellipse;whiteSpace=wrap;html=1;" vertex="1" parent="1">
          <mxGeometry x="530" y="285" width="140" height="70" as="geometry" />
        </mxCell>
        <mxCell id="2NU-YmTTYoI5YHuvntIQ-18" value="Loose Game&lt;br&gt;" style="ellipse;whiteSpace=wrap;html=1;" vertex="1" parent="1">
          <mxGeometry x="360" y="530" width="140" height="70" as="geometry" />
        </mxCell>
        <mxCell id="2NU-YmTTYoI5YHuvntIQ-19" value="" style="endArrow=classic;html=1;rounded=0;entryX=1;entryY=0;entryDx=0;entryDy=0;dashed=1;exitX=0;exitY=1;exitDx=0;exitDy=0;" edge="1" parent="1" source="2NU-YmTTYoI5YHuvntIQ-18" target="2NU-YmTTYoI5YHuvntIQ-11">
          <mxGeometry width="50" height="50" relative="1" as="geometry">
            <mxPoint x="370" y="517" as="sourcePoint" />
            <mxPoint x="192" y="445" as="targetPoint" />
            <Array as="points" />
          </mxGeometry>
        </mxCell>
        <mxCell id="2NU-YmTTYoI5YHuvntIQ-20" value="extend&lt;br&gt;" style="edgeLabel;html=1;align=center;verticalAlign=middle;resizable=0;points=[];" connectable="0" vertex="1" parent="2NU-YmTTYoI5YHuvntIQ-19">
          <mxGeometry x="-0.1282" relative="1" as="geometry">
            <mxPoint as="offset" />
          </mxGeometry>
        </mxCell>
        <mxCell id="2NU-YmTTYoI5YHuvntIQ-23" value="" style="endArrow=classic;html=1;rounded=0;entryX=1;entryY=0.5;entryDx=0;entryDy=0;dashed=1;exitX=0;exitY=0.5;exitDx=0;exitDy=0;" edge="1" parent="1" source="2NU-YmTTYoI5YHuvntIQ-17" target="2NU-YmTTYoI5YHuvntIQ-16">
          <mxGeometry width="50" height="50" relative="1" as="geometry">
            <mxPoint x="590" y="345" as="sourcePoint" />
            <mxPoint x="480" y="344.5" as="targetPoint" />
            <Array as="points" />
          </mxGeometry>
        </mxCell>
        <mxCell id="2NU-YmTTYoI5YHuvntIQ-24" value="extend&lt;br&gt;" style="edgeLabel;html=1;align=center;verticalAlign=middle;resizable=0;points=[];" connectable="0" vertex="1" parent="2NU-YmTTYoI5YHuvntIQ-23">
          <mxGeometry x="-0.1282" relative="1" as="geometry">
            <mxPoint as="offset" />
          </mxGeometry>
        </mxCell>
        <mxCell id="2NU-YmTTYoI5YHuvntIQ-30" value="" style="endArrow=classic;html=1;rounded=0;dashed=1;exitX=0;exitY=0.5;exitDx=0;exitDy=0;entryX=1;entryY=0.5;entryDx=0;entryDy=0;" edge="1" parent="1" source="2NU-YmTTYoI5YHuvntIQ-16" target="2NU-YmTTYoI5YHuvntIQ-13">
          <mxGeometry width="50" height="50" relative="1" as="geometry">
            <mxPoint x="370" y="344.5" as="sourcePoint" />
            <mxPoint x="320" y="335" as="targetPoint" />
            <Array as="points" />
          </mxGeometry>
        </mxCell>
        <mxCell id="2NU-YmTTYoI5YHuvntIQ-31" value="extend&lt;br&gt;" style="edgeLabel;html=1;align=center;verticalAlign=middle;resizable=0;points=[];" connectable="0" vertex="1" parent="2NU-YmTTYoI5YHuvntIQ-30">
          <mxGeometry x="-0.1282" relative="1" as="geometry">
            <mxPoint as="offset" />
          </mxGeometry>
        </mxCell>
        <mxCell id="2NU-YmTTYoI5YHuvntIQ-34" value="Pick Difficulty&lt;br&gt;" style="ellipse;whiteSpace=wrap;html=1;" vertex="1" parent="1">
          <mxGeometry x="190" y="200" width="140" height="70" as="geometry" />
        </mxCell>
        <mxCell id="2NU-YmTTYoI5YHuvntIQ-35" value="Enter Name&lt;br&gt;" style="ellipse;whiteSpace=wrap;html=1;" vertex="1" parent="1">
          <mxGeometry x="440" y="80" width="140" height="70" as="geometry" />
        </mxCell>
        <mxCell id="2NU-YmTTYoI5YHuvntIQ-36" value="" style="endArrow=open;endFill=1;endSize=12;html=1;rounded=0;entryX=0;entryY=1;entryDx=0;entryDy=0;exitX=1;exitY=0.3333333333333333;exitDx=0;exitDy=0;exitPerimeter=0;" edge="1" parent="1" source="2NU-YmTTYoI5YHuvntIQ-10" target="2NU-YmTTYoI5YHuvntIQ-14">
          <mxGeometry width="160" relative="1" as="geometry">
            <mxPoint x="60" y="335" as="sourcePoint" />
            <mxPoint x="230" y="355" as="targetPoint" />
          </mxGeometry>
        </mxCell>
        <mxCell id="2NU-YmTTYoI5YHuvntIQ-37" value="" style="endArrow=open;endFill=1;endSize=12;html=1;rounded=0;entryX=0;entryY=0.5;entryDx=0;entryDy=0;exitX=1;exitY=0.3333333333333333;exitDx=0;exitDy=0;exitPerimeter=0;" edge="1" parent="1" target="2NU-YmTTYoI5YHuvntIQ-13" source="2NU-YmTTYoI5YHuvntIQ-10">
          <mxGeometry width="160" relative="1" as="geometry">
            <mxPoint x="60" y="335" as="sourcePoint" />
            <mxPoint x="120" y="345" as="targetPoint" />
          </mxGeometry>
        </mxCell>
        <mxCell id="2NU-YmTTYoI5YHuvntIQ-38" value="" style="endArrow=open;endFill=1;endSize=12;html=1;rounded=0;entryX=0;entryY=0;entryDx=0;entryDy=0;exitX=1;exitY=0.3333333333333333;exitDx=0;exitDy=0;exitPerimeter=0;" edge="1" parent="1" source="2NU-YmTTYoI5YHuvntIQ-10" target="2NU-YmTTYoI5YHuvntIQ-12">
          <mxGeometry width="160" relative="1" as="geometry">
            <mxPoint x="60" y="335" as="sourcePoint" />
            <mxPoint x="145" y="355" as="targetPoint" />
          </mxGeometry>
        </mxCell>
        <mxCell id="2NU-YmTTYoI5YHuvntIQ-39" value="" style="endArrow=open;endFill=1;endSize=12;html=1;rounded=0;entryX=0;entryY=0;entryDx=0;entryDy=0;" edge="1" parent="1" target="2NU-YmTTYoI5YHuvntIQ-11">
          <mxGeometry width="160" relative="1" as="geometry">
            <mxPoint x="40" y="335" as="sourcePoint" />
            <mxPoint x="135" y="430" as="targetPoint" />
          </mxGeometry>
        </mxCell>
        <mxCell id="2NU-YmTTYoI5YHuvntIQ-40" value="" style="endArrow=open;endFill=1;endSize=12;html=1;rounded=0;entryX=0;entryY=0.5;entryDx=0;entryDy=0;exitX=1;exitY=0.3333333333333333;exitDx=0;exitDy=0;exitPerimeter=0;" edge="1" parent="1" target="2NU-YmTTYoI5YHuvntIQ-15" source="2NU-YmTTYoI5YHuvntIQ-10">
          <mxGeometry width="160" relative="1" as="geometry">
            <mxPoint x="60" y="335" as="sourcePoint" />
            <mxPoint x="135" y="425" as="targetPoint" />
          </mxGeometry>
        </mxCell>
        <mxCell id="2NU-YmTTYoI5YHuvntIQ-43" value="Loot Enemy&lt;br&gt;" style="ellipse;whiteSpace=wrap;html=1;" vertex="1" parent="1">
          <mxGeometry x="360" y="700" width="140" height="70" as="geometry" />
        </mxCell>
        <mxCell id="2NU-YmTTYoI5YHuvntIQ-44" value="" style="endArrow=classic;html=1;rounded=0;dashed=1;exitX=0;exitY=0.5;exitDx=0;exitDy=0;entryX=1;entryY=1;entryDx=0;entryDy=0;" edge="1" parent="1" source="2NU-YmTTYoI5YHuvntIQ-43" target="2NU-YmTTYoI5YHuvntIQ-11">
          <mxGeometry width="50" height="50" relative="1" as="geometry">
            <mxPoint x="350" y="635" as="sourcePoint" />
            <mxPoint x="265" y="570" as="targetPoint" />
            <Array as="points" />
          </mxGeometry>
        </mxCell>
        <mxCell id="2NU-YmTTYoI5YHuvntIQ-45" value="extend&lt;br&gt;" style="edgeLabel;html=1;align=center;verticalAlign=middle;resizable=0;points=[];" connectable="0" vertex="1" parent="2NU-YmTTYoI5YHuvntIQ-44">
          <mxGeometry x="-0.1282" relative="1" as="geometry">
            <mxPoint as="offset" />
          </mxGeometry>
        </mxCell>
        <mxCell id="2NU-YmTTYoI5YHuvntIQ-46" value="" style="endArrow=classic;html=1;rounded=0;entryX=0;entryY=0.5;entryDx=0;entryDy=0;dashed=1;exitX=1;exitY=0.5;exitDx=0;exitDy=0;" edge="1" parent="1" target="2NU-YmTTYoI5YHuvntIQ-35" source="2NU-YmTTYoI5YHuvntIQ-14">
          <mxGeometry width="50" height="50" relative="1" as="geometry">
            <mxPoint x="274" y="215" as="sourcePoint" />
            <mxPoint x="370" y="270" as="targetPoint" />
            <Array as="points" />
          </mxGeometry>
        </mxCell>
        <mxCell id="2NU-YmTTYoI5YHuvntIQ-47" value="include&lt;br&gt;" style="edgeLabel;html=1;align=center;verticalAlign=middle;resizable=0;points=[];" connectable="0" vertex="1" parent="2NU-YmTTYoI5YHuvntIQ-46">
          <mxGeometry x="-0.1282" relative="1" as="geometry">
            <mxPoint as="offset" />
          </mxGeometry>
        </mxCell>
        <mxCell id="2NU-YmTTYoI5YHuvntIQ-50" value="" style="endArrow=classic;html=1;rounded=0;entryX=0.5;entryY=0;entryDx=0;entryDy=0;dashed=1;exitX=0.5;exitY=1;exitDx=0;exitDy=0;" edge="1" parent="1" target="2NU-YmTTYoI5YHuvntIQ-34" source="2NU-YmTTYoI5YHuvntIQ-14">
          <mxGeometry width="50" height="50" relative="1" as="geometry">
            <mxPoint x="274" y="225" as="sourcePoint" />
            <mxPoint x="370" y="280" as="targetPoint" />
            <Array as="points" />
          </mxGeometry>
        </mxCell>
        <mxCell id="2NU-YmTTYoI5YHuvntIQ-51" value="include&lt;br&gt;" style="edgeLabel;html=1;align=center;verticalAlign=middle;resizable=0;points=[];" connectable="0" vertex="1" parent="2NU-YmTTYoI5YHuvntIQ-50">
          <mxGeometry x="-0.1282" relative="1" as="geometry">
            <mxPoint as="offset" />
          </mxGeometry>
        </mxCell>
        <mxCell id="2NU-YmTTYoI5YHuvntIQ-53" value="" style="endArrow=open;endFill=1;endSize=12;html=1;rounded=0;entryX=1;entryY=0.5;entryDx=0;entryDy=0;exitX=0;exitY=0.3333333333333333;exitDx=0;exitDy=0;exitPerimeter=0;" edge="1" parent="1" source="2NU-YmTTYoI5YHuvntIQ-6" target="2NU-YmTTYoI5YHuvntIQ-15">
          <mxGeometry width="160" relative="1" as="geometry">
            <mxPoint x="435" y="705" as="sourcePoint" />
            <mxPoint x="595" y="705" as="targetPoint" />
          </mxGeometry>
        </mxCell>
        <mxCell id="2NU-YmTTYoI5YHuvntIQ-54" value="" style="endArrow=open;endFill=1;endSize=12;html=1;rounded=0;exitX=0;exitY=0.3333333333333333;exitDx=0;exitDy=0;exitPerimeter=0;entryX=1;entryY=0;entryDx=0;entryDy=0;" edge="1" parent="1" source="2NU-YmTTYoI5YHuvntIQ-4" target="2NU-YmTTYoI5YHuvntIQ-15">
          <mxGeometry width="160" relative="1" as="geometry">
            <mxPoint x="820" y="290" as="sourcePoint" />
            <mxPoint x="260" y="765" as="targetPoint" />
            <Array as="points">
              <mxPoint x="550" y="760" />
            </Array>
          </mxGeometry>
        </mxCell>
        <mxCell id="2NU-YmTTYoI5YHuvntIQ-56" value="" style="endArrow=open;endFill=1;endSize=12;html=1;rounded=0;entryX=0.5;entryY=1;entryDx=0;entryDy=0;exitX=0;exitY=0.3333333333333333;exitDx=0;exitDy=0;exitPerimeter=0;" edge="1" parent="1" source="2NU-YmTTYoI5YHuvntIQ-6" target="2NU-YmTTYoI5YHuvntIQ-17">
          <mxGeometry width="160" relative="1" as="geometry">
            <mxPoint x="780" y="865" as="sourcePoint" />
            <mxPoint x="980" y="645" as="targetPoint" />
          </mxGeometry>
        </mxCell>
        <mxCell id="2NU-YmTTYoI5YHuvntIQ-57" value="" style="endArrow=open;endFill=1;endSize=12;html=1;rounded=0;entryX=1;entryY=0.5;entryDx=0;entryDy=0;exitX=0;exitY=0.3333333333333333;exitDx=0;exitDy=0;exitPerimeter=0;" edge="1" parent="1" source="2NU-YmTTYoI5YHuvntIQ-5" target="2NU-YmTTYoI5YHuvntIQ-11">
          <mxGeometry width="160" relative="1" as="geometry">
            <mxPoint x="830" y="655" as="sourcePoint" />
            <mxPoint x="675" y="390" as="targetPoint" />
          </mxGeometry>
        </mxCell>
        <mxCell id="2NU-YmTTYoI5YHuvntIQ-60" value="" style="endArrow=open;endFill=1;endSize=12;html=1;rounded=0;exitX=0;exitY=0.3333333333333333;exitDx=0;exitDy=0;exitPerimeter=0;entryX=1;entryY=0.5;entryDx=0;entryDy=0;" edge="1" parent="1" source="2NU-YmTTYoI5YHuvntIQ-4" target="2NU-YmTTYoI5YHuvntIQ-14">
          <mxGeometry width="160" relative="1" as="geometry">
            <mxPoint x="830" y="345" as="sourcePoint" />
            <mxPoint x="290" y="775" as="targetPoint" />
            <Array as="points">
              <mxPoint x="600" y="190" />
            </Array>
          </mxGeometry>
        </mxCell>
        <mxCell id="2NU-YmTTYoI5YHuvntIQ-65" value="" style="endArrow=open;endFill=1;endSize=12;html=1;rounded=0;entryX=1;entryY=0.5;entryDx=0;entryDy=0;exitX=0;exitY=0.3333333333333333;exitDx=0;exitDy=0;exitPerimeter=0;" edge="1" parent="1" source="2NU-YmTTYoI5YHuvntIQ-4" target="2NU-YmTTYoI5YHuvntIQ-12">
          <mxGeometry width="160" relative="1" as="geometry">
            <mxPoint x="820" y="335" as="sourcePoint" />
            <mxPoint x="520" y="625" as="targetPoint" />
            <Array as="points">
              <mxPoint x="660" y="365" />
              <mxPoint x="550" y="395" />
            </Array>
          </mxGeometry>
        </mxCell>
        <mxCell id="Th8g9D-lGRyBihdZR9Pq-1" value="HIt trap" style="ellipse;whiteSpace=wrap;html=1;" vertex="1" parent="1">
          <mxGeometry x="210" y="400" width="140" height="70" as="geometry" />
        </mxCell>
        <mxCell id="Th8g9D-lGRyBihdZR9Pq-2" value="" style="endArrow=classic;html=1;rounded=0;entryX=1;entryY=1;entryDx=0;entryDy=0;dashed=1;exitX=0;exitY=0;exitDx=0;exitDy=0;" edge="1" parent="1" source="2NU-YmTTYoI5YHuvntIQ-18" target="Th8g9D-lGRyBihdZR9Pq-1">
          <mxGeometry width="50" height="50" relative="1" as="geometry">
            <mxPoint x="455" y="365" as="sourcePoint" />
            <mxPoint x="360" y="465" as="targetPoint" />
            <Array as="points" />
          </mxGeometry>
        </mxCell>
        <mxCell id="Th8g9D-lGRyBihdZR9Pq-3" value="extend&lt;br&gt;" style="edgeLabel;html=1;align=center;verticalAlign=middle;resizable=0;points=[];" connectable="0" vertex="1" parent="Th8g9D-lGRyBihdZR9Pq-2">
          <mxGeometry x="-0.1282" relative="1" as="geometry">
            <mxPoint as="offset" />
          </mxGeometry>
        </mxCell>
        <mxCell id="Th8g9D-lGRyBihdZR9Pq-6" value="" style="endArrow=classic;html=1;rounded=0;entryX=0.5;entryY=1;entryDx=0;entryDy=0;dashed=1;exitX=0;exitY=0;exitDx=0;exitDy=0;" edge="1" parent="1" source="Th8g9D-lGRyBihdZR9Pq-1" target="2NU-YmTTYoI5YHuvntIQ-13">
          <mxGeometry width="50" height="50" relative="1" as="geometry">
            <mxPoint x="230.5" y="410" as="sourcePoint" />
            <mxPoint x="179.5" y="355" as="targetPoint" />
            <Array as="points" />
          </mxGeometry>
        </mxCell>
        <mxCell id="Th8g9D-lGRyBihdZR9Pq-7" value="extend&lt;br&gt;" style="edgeLabel;html=1;align=center;verticalAlign=middle;resizable=0;points=[];" connectable="0" vertex="1" parent="Th8g9D-lGRyBihdZR9Pq-6">
          <mxGeometry x="-0.1282" relative="1" as="geometry">
            <mxPoint as="offset" />
          </mxGeometry>
        </mxCell>
        <mxCell id="Th8g9D-lGRyBihdZR9Pq-10" value="" style="endArrow=open;endFill=1;endSize=12;html=1;rounded=0;entryX=1;entryY=1;entryDx=0;entryDy=0;exitX=0;exitY=0.3333333333333333;exitDx=0;exitDy=0;exitPerimeter=0;" edge="1" parent="1" target="2NU-YmTTYoI5YHuvntIQ-13">
          <mxGeometry width="160" relative="1" as="geometry">
            <mxPoint x="760" y="315" as="sourcePoint" />
            <mxPoint x="290" y="540" as="targetPoint" />
            <Array as="points">
              <mxPoint x="660" y="365" />
              <mxPoint x="550" y="395" />
              <mxPoint x="460" y="440" />
            </Array>
          </mxGeometry>
        </mxCell>
        <mxCell id="Th8g9D-lGRyBihdZR9Pq-12" value="Dungeon Crawler&lt;br&gt;" style="text;html=1;strokeColor=none;fillColor=none;align=center;verticalAlign=middle;whiteSpace=wrap;rounded=0;" vertex="1" parent="1">
          <mxGeometry x="302.5" y="65" width="170" height="30" as="geometry" />
        </mxCell>
        <mxCell id="ZBCbLfTWbidlOTc7f8b1-1" value="" style="endArrow=open;endFill=1;endSize=12;html=1;rounded=0;entryX=1;entryY=0.5;entryDx=0;entryDy=0;exitX=0;exitY=0.3333333333333333;exitDx=0;exitDy=0;exitPerimeter=0;" edge="1" parent="1" target="2NU-YmTTYoI5YHuvntIQ-18">
          <mxGeometry width="160" relative="1" as="geometry">
            <mxPoint x="760" y="795" as="sourcePoint" />
            <mxPoint x="600" y="335" as="targetPoint" />
            <Array as="points">
              <mxPoint x="650" y="490" />
            </Array>
          </mxGeometry>
        </mxCell>
        <mxCell id="ZBCbLfTWbidlOTc7f8b1-2" value="" style="endArrow=classic;html=1;rounded=0;entryX=0.229;entryY=0.114;entryDx=0;entryDy=0;dashed=1;exitX=1;exitY=1;exitDx=0;exitDy=0;entryPerimeter=0;" edge="1" parent="1" source="2NU-YmTTYoI5YHuvntIQ-14" target="ZBCbLfTWbidlOTc7f8b1-4">
          <mxGeometry width="50" height="50" relative="1" as="geometry">
            <mxPoint x="280" y="200" as="sourcePoint" />
            <mxPoint x="460" y="200" as="targetPoint" />
            <Array as="points" />
          </mxGeometry>
        </mxCell>
        <mxCell id="ZBCbLfTWbidlOTc7f8b1-3" value="include&lt;br&gt;" style="edgeLabel;html=1;align=center;verticalAlign=middle;resizable=0;points=[];" connectable="0" vertex="1" parent="ZBCbLfTWbidlOTc7f8b1-2">
          <mxGeometry x="-0.1282" relative="1" as="geometry">
            <mxPoint as="offset" />
          </mxGeometry>
        </mxCell>
        <mxCell id="ZBCbLfTWbidlOTc7f8b1-4" value="Pick Sprite&lt;br&gt;" style="ellipse;whiteSpace=wrap;html=1;" vertex="1" parent="1">
          <mxGeometry x="440" y="200" width="140" height="70" as="geometry" />
        </mxCell>
        <mxCell id="ZBCbLfTWbidlOTc7f8b1-5" value="" style="endArrow=open;endFill=1;endSize=12;html=1;rounded=0;exitX=0;exitY=0.3333333333333333;exitDx=0;exitDy=0;exitPerimeter=0;entryX=0.5;entryY=0;entryDx=0;entryDy=0;" edge="1" parent="1" target="2NU-YmTTYoI5YHuvntIQ-11">
          <mxGeometry width="160" relative="1" as="geometry">
            <mxPoint x="760" y="315" as="sourcePoint" />
            <mxPoint x="250" y="710" as="targetPoint" />
            <Array as="points">
              <mxPoint x="660" y="365" />
              <mxPoint x="550" y="395" />
              <mxPoint x="320" y="510" />
            </Array>
          </mxGeometry>
        </mxCell>
      </root>
    </mxGraphModel>
  </diagram>
</mxfile>
